<?xml version="1.0" encoding="UTF-8" standalone="no"?>
<!DOCTYPE svg PUBLIC "-//W3C//DTD SVG 1.1//EN"
 "http://www.w3.org/Graphics/SVG/1.1/DTD/svg11.dtd">
<!-- Generated by graphviz version 9.0.0 (20230911.1827)
 -->
<!-- Pages: 1 -->
<svg width="499pt" height="128pt"
 viewBox="0.00 0.00 499.25 128.00" xmlns="http://www.w3.org/2000/svg" xmlns:xlink="http://www.w3.org/1999/xlink">
<g id="graph0" class="graph" transform="scale(1 1) rotate(0) translate(4 124)">
<polygon fill="white" stroke="none" points="-4,4 -4,-124 495.25,-124 495.25,4 -4,4"/>
<!-- 4510633744 -->
<g id="node1" class="node">
<title>4510633744</title>
<polygon fill="none" stroke="black" points="0,-83.5 0,-119.5 79.75,-119.5 79.75,-83.5 0,-83.5"/>
<text text-anchor="middle" x="39.88" y="-96.7" font-family="Times,serif" font-size="14.00">data 2.0000</text>
</g>
<!-- 4512410400* -->
<g id="node3" class="node">
<title>4512410400*</title>
<ellipse fill="none" stroke="black" cx="142.75" cy="-73.5" rx="27" ry="18"/>
<text text-anchor="middle" x="142.75" y="-68.45" font-family="Times,serif" font-size="14.00">*</text>
</g>
<!-- 4510633744&#45;&gt;4512410400* -->
<g id="edge5" class="edge">
<title>4510633744&#45;&gt;4512410400*</title>
<path fill="none" stroke="black" d="M80.16,-90.59C88.76,-88.21 97.81,-85.7 106.25,-83.35"/>
<polygon fill="black" stroke="black" points="107.11,-86.75 115.81,-80.7 105.24,-80 107.11,-86.75"/>
</g>
<!-- 4512410400 -->
<g id="node2" class="node">
<title>4512410400</title>
<polygon fill="none" stroke="black" points="205.75,-55.5 205.75,-91.5 285.5,-91.5 285.5,-55.5 205.75,-55.5"/>
<text text-anchor="middle" x="245.62" y="-68.7" font-family="Times,serif" font-size="14.00">data 2.0000</text>
</g>
<!-- 4510486000+ -->
<g id="node7" class="node">
<title>4510486000+</title>
<ellipse fill="none" stroke="black" cx="348.5" cy="-45.5" rx="27" ry="18"/>
<text text-anchor="middle" x="348.5" y="-40.45" font-family="Times,serif" font-size="14.00">+</text>
</g>
<!-- 4512410400&#45;&gt;4510486000+ -->
<g id="edge4" class="edge">
<title>4512410400&#45;&gt;4510486000+</title>
<path fill="none" stroke="black" d="M285.91,-62.59C294.51,-60.21 303.56,-57.7 312,-55.35"/>
<polygon fill="black" stroke="black" points="312.86,-58.75 321.56,-52.7 310.99,-52 312.86,-58.75"/>
</g>
<!-- 4512410400*&#45;&gt;4512410400 -->
<g id="edge1" class="edge">
<title>4512410400*&#45;&gt;4512410400</title>
<path fill="none" stroke="black" d="M169.99,-73.5C177.46,-73.5 185.85,-73.5 194.24,-73.5"/>
<polygon fill="black" stroke="black" points="194.08,-77 204.08,-73.5 194.08,-70 194.08,-77"/>
</g>
<!-- 4511907168 -->
<g id="node4" class="node">
<title>4511907168</title>
<polygon fill="none" stroke="black" points="205.75,-0.5 205.75,-36.5 285.5,-36.5 285.5,-0.5 205.75,-0.5"/>
<text text-anchor="middle" x="245.62" y="-13.7" font-family="Times,serif" font-size="14.00">data 3.0000</text>
</g>
<!-- 4511907168&#45;&gt;4510486000+ -->
<g id="edge3" class="edge">
<title>4511907168&#45;&gt;4510486000+</title>
<path fill="none" stroke="black" d="M285.91,-29.02C294.51,-31.32 303.56,-33.74 312,-36"/>
<polygon fill="black" stroke="black" points="311,-39.35 321.56,-38.56 312.81,-32.59 311,-39.35"/>
</g>
<!-- 4511952848 -->
<g id="node5" class="node">
<title>4511952848</title>
<polygon fill="none" stroke="black" points="0,-28.5 0,-64.5 79.75,-64.5 79.75,-28.5 0,-28.5"/>
<text text-anchor="middle" x="39.88" y="-41.7" font-family="Times,serif" font-size="14.00">data 1.0000</text>
</g>
<!-- 4511952848&#45;&gt;4512410400* -->
<g id="edge6" class="edge">
<title>4511952848&#45;&gt;4512410400*</title>
<path fill="none" stroke="black" d="M80.16,-57.02C88.76,-59.32 97.81,-61.74 106.25,-64"/>
<polygon fill="black" stroke="black" points="105.25,-67.35 115.81,-66.56 107.06,-60.59 105.25,-67.35"/>
</g>
<!-- 4510486000 -->
<g id="node6" class="node">
<title>4510486000</title>
<polygon fill="none" stroke="black" points="411.5,-27.5 411.5,-63.5 491.25,-63.5 491.25,-27.5 411.5,-27.5"/>
<text text-anchor="middle" x="451.38" y="-40.7" font-family="Times,serif" font-size="14.00">data 5.0000</text>
</g>
<!-- 4510486000+&#45;&gt;4510486000 -->
<g id="edge2" class="edge">
<title>4510486000+&#45;&gt;4510486000</title>
<path fill="none" stroke="black" d="M375.74,-45.5C383.21,-45.5 391.6,-45.5 399.99,-45.5"/>
<polygon fill="black" stroke="black" points="399.83,-49 409.83,-45.5 399.83,-42 399.83,-49"/>
</g>
</g>
</svg>
